<svg xmlns="http://www.w3.org/2000/svg" viewBox="0 0 37 37"><title>Page 1</title><path fill="#FFCB00" fill-rule="evenodd" d="M1.1 37c.6 0 1.08-.5 1.08-1.1v-3.25h32.64v3.26c0 .6.5 1.1 1.1 1.1.6 0 1.08-.5 1.08-1.1V18.5c0-.6-.5-1.1-1.1-1.1-.6 0-1.08.5-1.08 1.1v3.26h-.23L32.64 14V1.1c0-.6-.5-1.1-1.1-1.1-.6 0-1.08.5-1.08 1.1v3.25H6.53V1.1c0-.6-.5-1.1-1.1-1.1-.6 0-1.08.5-1.08 1.1V14L2.4 21.77H2.2V18.5c0-.6-.5-1.1-1.1-1.1-.6 0-1.08.5-1.08 1.1v17.4c0 .6.5 1.1 1.1 1.1zM6.52 6.53h23.94v6.53H28.3v-1.1c0-1.8-1.47-3.25-3.27-3.25h-4.35c-.84 0-1.6.32-2.18.84-.58-.52-1.34-.83-2.18-.83h-4.35c-1.8 0-3.26 1.47-3.26 3.27v1.1H6.54V6.52zm19.6 5.44v1.1h-6.54v-1.1c0-.6.48-1.1 1.08-1.1h4.35c.6 0 1.1.5 1.1 1.1zm-8.72 0v1.1H10.9v-1.1c0-.6.5-1.1 1.1-1.1h4.34c.6 0 1.1.5 1.1 1.1zM6.3 15.24h24.4l1.64 6.52H4.66l1.63-6.52zm-4.12 8.7h32.64v6.53H2.18v-6.53z"/></svg>