<svg xmlns="http://www.w3.org/2000/svg" viewBox="0 0 39 29"><title>Page 1</title><path fill="#FFCB00" fill-rule="evenodd" d="M9.15 0c-.45.07-.84.37-1 .78-.18.42-.12.9.15 1.26.54.75.62 1 .6 1.34 0 .36-.23.94-.56 1.35-.2.26-.3.6-.28.94.04.34.2.65.47.86.26.2.6.3.94.27.34-.03.65-.2.86-.46.63-.8 1.1-1.78 1.12-2.9.03-1-.4-1.95-1.08-2.9-.28-.4-.75-.6-1.22-.53zm6.36 0c-.44.07-.82.37-1 .78-.17.42-.1.9.16 1.26.54.75.62 1 .6 1.34 0 .36-.22.94-.56 1.35-.2.26-.3.6-.27.94.03.34.2.65.46.86.26.2.6.3.93.27.34-.03.65-.2.86-.46.63-.8 1.1-1.78 1.12-2.9.02-1-.4-1.95-1.1-2.9-.26-.4-.74-.6-1.2-.53zm6.37 0c-.44.07-.83.37-1 .78-.18.42-.12.9.16 1.26.53.75.6 1 .6 1.34 0 .36-.23.94-.56 1.35-.22.26-.32.6-.28.94.03.34.2.65.46.86.26.2.6.3.94.27.33-.03.64-.2.85-.46.64-.8 1.1-1.78 1.13-2.9.03-1-.4-1.95-1.1-2.9-.26-.4-.73-.6-1.2-.53zM2.97 8.5C1.35 8.5 0 9.87 0 11.5v4.24c0 3.5 1.93 6.64 4.87 8.82 2.93 2.18 6.9 3.5 11.25 3.5 4.36 0 8.32-1.32 11.26-3.5 1.54-1.15 2.8-2.56 3.66-4.15h2.47c2.58 0 4.68-2.1 4.68-4.68 0-2.56-2.1-4.66-4.67-4.66h-1.3C32 9.63 30.75 8.5 29.27 8.5H2.97zm0 2.56h26.3c.26 0 .43.16.43.42v4.24c0 2.58-1.4 4.96-3.83 6.78-2.44 1.8-5.9 2.98-9.75 2.98-3.84 0-7.3-1.17-9.74-2.98-2.44-1.82-3.83-4.2-3.83-6.78v-4.24c0-.26.16-.42.42-.42zm29.27 2.54h1.27c1.2 0 2.14.92 2.14 2.12 0 1.2-.93 2.12-2.13 2.12H32c.16-.68.24-1.4.24-2.12V13.6z"/></svg>