<svg xmlns="http://www.w3.org/2000/svg" viewBox="0 0 80 81"><title>Page 1</title><g fill="#FFF" fill-rule="evenodd"><path d="M78.46 66.08c-1.48 0-2.2-.4-3-.85-.93-.52-1.97-1.1-3.97-1.1-2.02 0-3.06.58-4 1.1-.8.46-1.5.85-3 .85-1.48 0-2.18-.4-3-.85-.92-.52-1.96-1.1-3.96-1.1s-3.05.58-3.97 1.1c-.82.46-1.52.85-3 .85-1.5 0-2.2-.4-3-.85-.93-.52-1.98-1.1-3.98-1.1s-3.06.58-3.98 1.1c-.8.46-1.52.85-3 .85-1.5 0-2.2-.4-3-.85-.92-.52-1.97-1.1-3.97-1.1s-3.05.58-3.97 1.1c-.82.46-1.52.85-3 .85-1.5 0-2.2-.4-3-.85-.93-.52-1.98-1.1-3.97-1.1-2 0-3.04.58-3.96 1.1-.82.46-1.52.85-3 .85-1.5 0-2.2-.4-3-.85-.93-.52-1.97-1.1-3.98-1.1-.54 0-.98.43-.98.97s.44.98.98.98c1.5 0 2.2.4 3 .85.93.53 1.97 1.1 3.97 1.1s3.05-.57 3.98-1.1c.82-.45 1.52-.85 3-.85 1.5 0 2.2.4 3 .85.93.53 1.97 1.1 3.97 1.1s3.05-.57 3.97-1.1c.8-.45 1.52-.85 3-.85 1.5 0 2.2.4 3 .85.93.53 1.97 1.1 3.97 1.1 2.02 0 3.06-.57 3.98-1.1.82-.45 1.52-.85 3-.85 1.5 0 2.2.4 3 .85.93.53 1.97 1.1 3.98 1.1 2 0 3.04-.57 3.96-1.1.82-.45 1.52-.85 3-.85 1.5 0 2.2.4 3 .85.93.53 1.97 1.1 3.98 1.1 2 0 3.05-.57 3.97-1.1.8-.45 1.52-.85 3-.85 1.5 0 2.2.4 3 .85.93.53 1.98 1.1 3.98 1.1.55 0 1-.43 1-.97s-.44-.98-1-.98zM78.46 72.07c-1.48 0-2.2-.4-3-.85-.93-.52-1.97-1.1-3.97-1.1-2.02 0-3.06.58-4 1.1-.8.46-1.5.85-3 .85-1.48 0-2.18-.4-3-.85-.92-.52-1.96-1.1-3.96-1.1s-3.05.58-3.97 1.1c-.82.46-1.52.85-3 .85-1.5 0-2.2-.4-3-.85-.93-.52-1.98-1.1-3.98-1.1s-3.06.58-3.98 1.1c-.8.46-1.52.85-3 .85-1.5 0-2.2-.4-3-.85-.92-.52-1.97-1.1-3.97-1.1s-3.05.58-3.97 1.1c-.82.46-1.52.85-3 .85-1.5 0-2.2-.4-3-.85-.93-.52-1.98-1.1-3.97-1.1-2 0-3.04.58-3.96 1.1-.82.46-1.52.85-3 .85-1.5 0-2.2-.4-3-.85-.93-.52-1.97-1.1-3.98-1.1-.54 0-.98.43-.98.97s.44.97.98.97c1.5 0 2.2.4 3 .86.93.52 1.97 1.1 3.97 1.1s3.05-.58 3.98-1.1c.82-.46 1.52-.86 3-.86 1.5 0 2.2.4 3 .86.93.52 1.97 1.1 3.97 1.1s3.05-.58 3.97-1.1c.8-.46 1.52-.86 3-.86 1.5 0 2.2.4 3 .86.93.52 1.97 1.1 3.97 1.1 2.02 0 3.06-.58 3.98-1.1.82-.46 1.52-.86 3-.86 1.5 0 2.2.4 3 .86.93.52 1.97 1.1 3.98 1.1 2 0 3.04-.58 3.96-1.1.82-.46 1.52-.86 3-.86 1.5 0 2.2.4 3 .86.93.52 1.97 1.1 3.98 1.1 2 0 3.05-.58 3.97-1.1.8-.46 1.52-.86 3-.86 1.5 0 2.2.4 3 .86.93.52 1.98 1.1 3.98 1.1.55 0 1-.43 1-.98 0-.54-.44-.98-1-.98zM78.46 78.06c-1.48 0-2.2-.4-3-.85-.93-.5-1.97-1.1-3.97-1.1-2.02 0-3.06.6-4 1.1-.8.46-1.5.86-3 .86-1.48 0-2.18-.4-3-.85-.92-.5-1.96-1.1-3.96-1.1s-3.05.6-3.97 1.1c-.82.47-1.52.86-3 .86-1.5 0-2.2-.4-3-.85-.93-.5-1.98-1.1-3.97-1.1-2 0-3.05.6-3.97 1.1-.82.47-1.52.86-3 .86-1.5 0-2.2-.4-3-.85-.92-.5-1.97-1.1-3.97-1.1s-3.05.6-3.97 1.1c-.82.47-1.53.86-3 .86-1.5 0-2.2-.4-3-.85-.93-.5-1.98-1.1-3.98-1.1s-3.05.6-3.97 1.1c-.8.47-1.5.86-3 .86s-2.2-.4-3-.85c-.92-.5-1.97-1.1-3.97-1.1-.54 0-.98.44-.98.98s.44.98.98.98c1.5 0 2.2.4 3 .85.93.53 1.97 1.12 3.97 1.12s3.05-.6 3.97-1.1c.8-.47 1.52-.86 3-.86 1.5 0 2.2.4 3 .85.92.53 1.97 1.12 3.97 1.12s3.04-.6 3.96-1.1c.8-.46 1.52-.86 3-.86s2.18.4 3 .85c.92.53 1.97 1.12 3.96 1.12 2 0 3.05-.6 3.97-1.1.8-.47 1.5-.86 3-.86 1.48 0 2.18.4 3 .85.92.53 1.97 1.12 3.97 1.12s3.04-.6 3.96-1.1c.82-.47 1.52-.86 3-.86 1.5 0 2.2.4 3 .85.93.53 1.97 1.12 3.98 1.12 2 0 3.06-.6 3.98-1.1.82-.46 1.52-.86 3-.86 1.5 0 2.2.4 3 .85.94.53 1.98 1.12 3.98 1.12.55 0 1-.44 1-.98s-.45-.98-1-.98zM1.76 61.73h76.7c.53 0 .97-.44.97-.98s-.44-.98-.98-.98H72.2V25.5c0-.53-.44-.97-1-.97H56.9c-.54 0-.98.44-.98.98v4.08H53.4V4.78c0-.54-.45-.98-1-.98H38.1c-.55 0-1 .44-1 .98V32.6h-1.94l-.86-15.05c-.03-.52-.46-.92-.98-.92h-4.54c-.52 0-.95.4-.98.92l-.86 15.06h-1.6V22.54c0-.54-.45-.98-1-.98h-1.2c-.28-2.17-1.83-4.12-3.43-4.12h-1.5V12c0-.53-.45-.97-1-.97-.54 0-.98.44-.98.98v5.43h-1.44c-1.6 0-3.15 1.95-3.43 4.12h-1.4c-.53 0-.97.44-.97.98v37.24H1.76c-.55 0-1 .44-1 .98.02.54.46.98 1 .98zM57.9 26.5h12.34v33.27H57.9V26.5zm-1.98 5.04v28.23H43.9l-.12-28.23h12.14zM39.08 5.76h12.34v23.82H42.8c-.27 0-.52.1-.7.3-.2.17-.3.42-.3.68l.13 29.2h-2.85v-54zM29.7 18.6h2.7l.8 14h-4.3l.8-14zm-4.37 15.97H37.1v25.2H25.34v-25.2zM14.78 19.4h4.93c.33 0 1.22.86 1.46 2.15h-7.83c.25-1.3 1.13-2.15 1.45-2.16zm-3.83 4.1h12.4v36.27h-12.4V23.5z"/><path d="M13.7 25.5c-.54 0-1 .44-1 .98v2.08c0 .54.46.98 1 .98s.98-.44.98-.98v-2.08c0-.54-.44-.98-.98-.98zM17.24 25.5c-.54 0-.98.44-.98.98v2.08c0 .54.44.98.98.98.55 0 1-.44 1-.98v-2.08c0-.54-.45-.98-1-.98zM20.8 25.5c-.55 0-1 .44-1 .98v2.08c0 .54.45.98 1 .98.54 0 .98-.44.98-.98v-2.08c0-.54-.44-.98-1-.98zM13.7 30.9c-.54 0-1 .45-1 1v2.07c0 .54.46.98 1 .98s.98-.44.98-.98V31.9c0-.55-.44-1-.98-1zM17.24 30.9c-.54 0-.98.45-.98 1v2.07c0 .54.44.98.98.98.55 0 1-.44 1-.98V31.9c0-.55-.45-1-1-1zM20.8 30.9c-.55 0-1 .45-1 1v2.07c0 .54.45.98 1 .98.54 0 .98-.44.98-.98V31.9c0-.55-.44-1-1-1zM13.7 36.33c-.54 0-1 .43-1 .98v2.1c0 .53.46.97 1 .97s.98-.44.98-.98v-2.1c0-.54-.44-.97-.98-.97zM17.24 36.33c-.54 0-.98.43-.98.98v2.1c0 .53.44.97.98.97.55 0 1-.44 1-.98v-2.1c0-.54-.45-.97-1-.97zM20.8 36.33c-.55 0-1 .43-1 .98v2.1c0 .53.45.97 1 .97.54 0 .98-.44.98-.98v-2.1c0-.54-.44-.97-1-.97zM13.7 41.74c-.54 0-1 .44-1 .98v2.08c0 .54.46.98 1 .98s.98-.44.98-.98v-2.08c0-.54-.44-.98-.98-.98zM17.24 41.74c-.54 0-.98.44-.98.98v2.08c0 .54.44.98.98.98.55 0 1-.44 1-.98v-2.08c0-.54-.45-.98-1-.98zM20.8 41.74c-.55 0-1 .44-1 .98v2.08c0 .54.45.98 1 .98.54 0 .98-.44.98-.98v-2.08c0-.54-.44-.98-1-.98zM13.7 47.16c-.54 0-1 .43-1 .97v2.1c0 .53.46.97 1 .97s.98-.44.98-.98v-2.1c0-.53-.44-.96-.98-.96zM17.24 47.16c-.54 0-.98.43-.98.97v2.1c0 .53.44.97.98.97.55 0 1-.44 1-.98v-2.1c0-.53-.45-.96-1-.96zM20.8 47.16c-.55 0-1 .43-1 .97v2.1c0 .53.45.97 1 .97.54 0 .98-.44.98-.98v-2.1c0-.53-.44-.96-1-.96zM13.7 52.56c-.54 0-1 .44-1 .98v2.1c0 .53.46.97 1 .97s.98-.43.98-.97v-2.1c0-.53-.44-.97-.98-.97zM17.24 52.56c-.54 0-.98.44-.98.98v2.1c0 .53.44.97.98.97.55 0 1-.43 1-.97v-2.1c0-.53-.45-.97-1-.97zM20.8 52.56c-.55 0-1 .44-1 .98v2.1c0 .53.45.97 1 .97.54 0 .98-.43.98-.97v-2.1c0-.53-.44-.97-1-.97zM27.63 36.33c-.55 0-1 .43-1 .98v2.1c0 .53.45.97 1 .97.54 0 .98-.44.98-.98v-2.1c0-.54-.43-.97-.97-.97zM31.18 36.33c-.55 0-1 .43-1 .98v2.1c0 .53.45.97 1 .97.54 0 .98-.44.98-.98v-2.1c0-.54-.44-.97-.98-.97zM34.73 36.33c-.55 0-1 .43-1 .98v2.1c0 .53.45.97 1 .97.54 0 .98-.44.98-.98v-2.1c0-.54-.43-.97-.97-.97zM27.63 41.74c-.55 0-1 .44-1 .98v2.08c0 .54.45.98 1 .98.54 0 .98-.44.98-.98v-2.08c0-.54-.43-.98-.97-.98zM31.18 41.74c-.55 0-1 .44-1 .98v2.08c0 .54.45.98 1 .98.54 0 .98-.44.98-.98v-2.08c0-.54-.44-.98-.98-.98zM34.73 41.74c-.55 0-1 .44-1 .98v2.08c0 .54.45.98 1 .98.54 0 .98-.44.98-.98v-2.08c0-.54-.43-.98-.97-.98zM27.63 47.16c-.55 0-1 .43-1 .97v2.1c0 .53.45.97 1 .97.54 0 .98-.44.98-.98v-2.1c0-.53-.43-.96-.97-.96zM31.18 47.16c-.55 0-1 .43-1 .97v2.1c0 .53.45.97 1 .97.54 0 .98-.44.98-.98v-2.1c0-.53-.44-.96-.98-.96zM34.73 47.16c-.55 0-1 .43-1 .97v2.1c0 .53.45.97 1 .97.54 0 .98-.44.98-.98v-2.1c0-.53-.43-.96-.97-.96zM27.63 52.56c-.55 0-1 .44-1 .98v2.1c0 .53.45.97 1 .97.54 0 .98-.43.98-.97v-2.1c0-.53-.43-.97-.97-.97zM31.18 52.56c-.55 0-1 .44-1 .98v2.1c0 .53.45.97 1 .97.54 0 .98-.43.98-.97v-2.1c0-.53-.44-.97-.98-.97zM34.73 52.56c-.55 0-1 .44-1 .98v2.1c0 .53.45.97 1 .97.54 0 .98-.43.98-.97v-2.1c0-.53-.43-.97-.97-.97zM60.66 46.65c.54 0 .98-.44.98-.98v-6.13c0-.54-.44-.98-.98-.98-.55 0-1 .44-1 .98v6.12c0 .55.45 1 1 1zM64.06 46.65c.54 0 .98-.44.98-.98v-6.13c0-.54-.44-.98-.98-.98-.55 0-1 .44-1 .98v6.12c0 .55.45 1 1 1zM67.46 46.65c.55 0 1-.44 1-.98v-6.13c0-.54-.45-.98-1-.98-.54 0-.98.44-.98.98v6.12c0 .55.44 1 .98 1zM60.66 36.78c.54 0 .98-.43.98-.98v-6.12c0-.54-.44-.98-.98-.98-.55 0-1 .44-1 .98v6.12c0 .55.45.98 1 .98zM64.06 36.78c.54 0 .98-.43.98-.98v-6.12c0-.54-.44-.98-.98-.98-.55 0-1 .44-1 .98v6.12c0 .55.45.98 1 .98zM67.46 36.78c.55 0 1-.43 1-.98v-6.12c0-.54-.45-.98-1-.98-.54 0-.98.44-.98.98v6.12c0 .55.44.98.98.98zM60.66 48.22c-.55 0-1 .44-1 .98v6.13c0 .54.45.98 1 .98.54 0 .98-.43.98-.97V49.2c0-.54-.44-.98-.98-.98zM64.06 48.22c-.54 0-.98.44-.98.98v6.13c0 .54.44.98.98.98.55 0 1-.43 1-.97V49.2c0-.54-.46-.98-1-.98zM67.46 48.22c-.54 0-.98.44-.98.98v6.13c0 .54.44.98.98.98.55 0 1-.43 1-.97V49.2c0-.54-.45-.98-1-.98zM42.83 24.94v-6.12c0-.55-.44-.98-1-.98-.53 0-.97.43-.97.98v6.12c0 .54.44.98.98.98.55 0 1-.44 1-.98zM45.25 25.92c.54 0 .98-.44.98-.98v-6.12c0-.55-.44-.98-.98-.98s-.98.43-.98.98v6.12c0 .54.44.98.98.98zM48.65 25.92c.55 0 1-.44 1-.98v-6.12c0-.55-.45-.98-1-.98-.54 0-.98.43-.98.98v6.12c0 .54.44.98.98.98zM41.84 16.44c.55 0 1-.44 1-.98V9.1c0-.54-.45-.98-1-.98-.54 0-.98.44-.98.98v6.36c0 .54.44.98.98.98zM45.25 16.44c.54 0 .98-.44.98-.98V9.1c0-.54-.44-.98-.98-.98s-.98.44-.98.98v6.36c0 .54.44.98.98.98zM48.65 16.44c.55 0 1-.44 1-.98V9.1c0-.54-.45-.98-1-.98-.54 0-.98.44-.98.98v6.36c0 .54.44.98.98.98zM46.08 40.37c.54 0 .98-.44.98-.98v-2.1c0-.54-.44-.97-.98-.97-.55 0-1 .43-1 .98v2.1c0 .53.45.97 1 .97zM49.63 40.37c.54 0 .98-.44.98-.98v-2.1c0-.54-.43-.97-.97-.97-.55 0-1 .43-1 .98v2.1c0 .53.45.97 1 .97zM53.17 40.37c.54 0 .98-.44.98-.98v-2.1c0-.54-.44-.97-.98-.97s-.98.43-.98.98v2.1c0 .53.43.97.97.97zM46.08 45.78c.54 0 .98-.44.98-.98v-2.08c0-.54-.44-.98-.98-.98-.55 0-1 .44-1 .98v2.08c0 .54.45.98 1 .98zM49.63 45.78c.54 0 .98-.44.98-.98v-2.08c0-.54-.43-.98-.97-.98-.55 0-1 .44-1 .98v2.08c0 .54.45.98 1 .98zM53.17 45.78c.54 0 .98-.44.98-.98v-2.08c0-.54-.44-.98-.98-.98s-.98.44-.98.98v2.08c0 .54.43.98.97.98zM46.08 51.2c.54 0 .98-.44.98-.98v-2.1c0-.53-.44-.96-.98-.96-.55 0-1 .43-1 .97v2.1c0 .53.45.97 1 .97zM49.63 51.2c.54 0 .98-.44.98-.98v-2.1c0-.53-.43-.96-.97-.96-.55 0-1 .43-1 .97v2.1c0 .53.45.97 1 .97zM53.17 51.2c.54 0 .98-.44.98-.98v-2.1c0-.53-.44-.96-.98-.96s-.98.43-.98.97v2.1c0 .53.43.97.97.97zM46.08 56.6c.54 0 .98-.43.98-.97v-2.1c0-.53-.44-.97-.98-.97-.55 0-1 .44-1 .98v2.1c0 .53.45.97 1 .97zM49.63 56.6c.54 0 .98-.43.98-.97v-2.1c0-.53-.43-.97-.97-.97-.55 0-1 .44-1 .98v2.1c0 .53.45.97 1 .97zM53.17 56.6c.54 0 .98-.43.98-.97v-2.1c0-.53-.44-.97-.98-.97s-.98.44-.98.98v2.1c0 .53.43.97.97.97zM30.8 4.78c0-2.27-1.85-4.12-4.13-4.12s-4.14 1.85-4.14 4.12S24.4 8.9 26.67 8.9c2.28 0 4.14-1.84 4.14-4.12zm-4.13 2.17c-1.2 0-2.17-.97-2.17-2.17s.97-2.16 2.17-2.16 2.17.97 2.17 2.16c0 1.2-.97 2.17-2.17 2.17zM30.28 15.17c1.6 0 2.9-1.3 2.9-2.9 0-1.58-1.3-2.88-2.9-2.88-1.6 0-2.9 1.3-2.9 2.88 0 1.6 1.3 2.9 2.9 2.9zm0-3.82c.5 0 .93.42.93.93 0 .5-.4.93-.92.93s-.94-.4-.94-.92c0-.5.42-.93.94-.93z"/></g></svg>