<svg xmlns="http://www.w3.org/2000/svg" viewBox="0 0 62 74"><title>Group 4</title><g fill="#FFF" fill-rule="evenodd"><path d="M58.22 60.8c-1.06 0-1.56-.37-2.15-.78-.66-.48-1.4-1.02-2.84-1.02-1.43 0-2.18.54-2.84 1.02-.6.42-1.1.78-2.16.78s-1.57-.37-2.15-.78c-.67-.48-1.42-1.02-2.85-1.02-1.43 0-2.18.54-2.84 1.02-.57.42-1.07.78-2.14.78-1.06 0-1.56-.37-2.15-.78-.65-.48-1.4-1.02-2.83-1.02-1.43 0-2.18.54-2.84 1.02-.58.42-1.08.78-2.15.78-1.06 0-1.56-.36-2.14-.78-.66-.48-1.4-1.02-2.84-1.02s-2.2.54-2.85 1.02c-.58.42-1.08.78-2.14.78s-1.56-.36-2.14-.78c-.66-.48-1.4-1.02-2.84-1.02-1.43 0-2.18.54-2.84 1.02-.58.42-1.08.78-2.15.78-1.06 0-1.56-.37-2.15-.78-.65-.48-1.4-1.02-2.84-1.02-.38 0-.7.4-.7.9s.32.9.7.9c1.07 0 1.57.36 2.15.78.65.48 1.4 1.02 2.83 1.02 1.44 0 2.18-.54 2.84-1.02.6-.42 1.1-.78 2.15-.78 1.06 0 1.57.36 2.15.78.66.48 1.4 1.02 2.83 1.02 1.44 0 2.18-.54 2.84-1.02.6-.42 1.1-.78 2.15-.78 1.05 0 1.56.36 2.14.78.66.48 1.4 1.02 2.84 1.02 1.43 0 2.18-.54 2.84-1.02.58-.42 1.1-.78 2.15-.78 1.06 0 1.56.36 2.15.78.66.48 1.4 1.02 2.84 1.02 1.43 0 2.18-.54 2.84-1.02.58-.42 1.08-.78 2.14-.78 1.07 0 1.57.36 2.15.78.65.48 1.4 1.02 2.83 1.02 1.44 0 2.18-.54 2.84-1.02.6-.42 1.1-.78 2.15-.78 1.07 0 1.57.36 2.16.78.66.48 1.4 1.02 2.84 1.02.4 0 .7-.4.7-.9s-.3-.9-.7-.9zM58.22 66.3c-1.06 0-1.56-.36-2.15-.78-.66-.48-1.4-1-2.84-1-1.43 0-2.18.52-2.84 1-.6.42-1.1.78-2.16.78s-1.57-.36-2.15-.78c-.67-.48-1.42-1-2.85-1-1.43 0-2.18.52-2.84 1-.57.42-1.07.78-2.14.78-1.06 0-1.56-.36-2.15-.78-.65-.48-1.4-1-2.83-1-1.43 0-2.18.52-2.84 1-.58.42-1.08.78-2.15.78-1.06 0-1.56-.36-2.14-.78-.66-.48-1.4-1-2.84-1s-2.2.52-2.85 1c-.58.42-1.08.78-2.14.78s-1.56-.36-2.14-.78c-.66-.48-1.4-1-2.84-1-1.43 0-2.18.52-2.84 1-.58.42-1.08.78-2.15.78-1.06 0-1.56-.36-2.15-.78-.65-.48-1.4-1-2.84-1-.38 0-.7.4-.7.88 0 .5.32.9.7.9 1.07 0 1.57.36 2.15.78.65.48 1.4 1.02 2.83 1.02 1.44 0 2.18-.54 2.84-1.02.6-.42 1.1-.78 2.15-.78 1.06 0 1.57.36 2.15.78.66.48 1.4 1.02 2.83 1.02 1.44 0 2.18-.54 2.84-1.02.6-.42 1.1-.78 2.15-.78 1.05 0 1.56.36 2.14.78.66.48 1.4 1.02 2.84 1.02 1.43 0 2.18-.54 2.84-1.02.58-.42 1.1-.78 2.15-.78 1.06 0 1.56.36 2.15.78.66.48 1.4 1.02 2.84 1.02 1.43 0 2.18-.54 2.84-1.02.58-.42 1.08-.78 2.14-.78 1.07 0 1.57.37 2.15.78.65.48 1.4 1.02 2.83 1.02 1.44 0 2.18-.54 2.84-1.02.6-.42 1.1-.78 2.15-.78 1.07 0 1.57.37 2.16.78.66.48 1.4 1.02 2.84 1.02.4 0 .7-.4.7-.9s-.3-.9-.7-.9zM58.2 71.8c-1.05 0-1.56-.36-2.14-.77-.66-.48-1.4-1.02-2.84-1.02s-2.18.55-2.84 1.03c-.6.4-1.1.78-2.15.78-1.07 0-1.57-.36-2.15-.77-.66-.48-1.4-1.02-2.84-1.02s-2.18.55-2.84 1.03c-.6.42-1.1.78-2.15.78-1.06 0-1.56-.36-2.15-.77-.66-.48-1.4-1.02-2.84-1.02-1.43 0-2.18.55-2.84 1.03-.58.42-1.08.78-2.15.78-1.06 0-1.56-.35-2.14-.77-.66-.48-1.4-1.02-2.84-1.02s-2.2.55-2.85 1.03c-.58.42-1.1.78-2.15.78-1.06 0-1.56-.35-2.14-.77-.66-.48-1.4-1.02-2.84-1.02-1.43 0-2.18.55-2.84 1.03-.58.42-1.1.78-2.15.78-1.06 0-1.57-.36-2.15-.77-.66-.48-1.4-1.02-2.84-1.02-.38 0-.7.4-.7.9s.32.9.7.9c1.07 0 1.57.37 2.15.8.65.47 1.4 1 2.83 1 1.43 0 2.18-.53 2.84-1 .58-.43 1.1-.8 2.15-.8 1.06 0 1.56.37 2.14.8.66.47 1.4 1 2.84 1s2.18-.53 2.84-1c.58-.43 1.1-.8 2.15-.8 1.05 0 1.55.37 2.14.8.66.47 1.4 1 2.83 1 1.44 0 2.18-.53 2.84-1 .6-.43 1.1-.8 2.16-.8 1.07 0 1.57.37 2.15.8.67.47 1.42 1 2.85 1 1.43 0 2.18-.53 2.84-1 .57-.43 1.07-.8 2.14-.8 1.06 0 1.56.37 2.14.8.66.47 1.4 1 2.85 1 1.43 0 2.18-.53 2.84-1 .58-.43 1.08-.8 2.15-.8 1.06 0 1.57.37 2.15.8.66.47 1.4 1 2.84 1 .4 0 .7-.4.7-.9s-.3-.9-.7-.9zM57.34 10.12c0-3.23-2.63-5.86-5.86-5.86-3.23 0-5.85 2.63-5.85 5.86 0 3.23 2.63 5.85 5.85 5.85 3.24 0 5.86-2.62 5.86-5.85zm-5.86 3.6c-1.98 0-3.6-1.62-3.6-3.6 0-2 1.62-3.6 3.6-3.6 2 0 3.6 1.6 3.6 3.6s-1.6 3.6-3.6 3.6zM50.36 3.52h2.25V.34h-2.24M50.36 19.9h2.25v-3.2h-2.24M45.37 17.82l-1.6-1.6L46.03 14l1.6 1.6M57.6 2.4L59.2 4l-2.25 2.24-1.6-1.6M57.6 17.82l-2.24-2.25 1.6-1.6 2.24 2.26M45.37 2.4l2.24 2.25-1.58 1.6L43.78 4M58.08 11.24h3.18V9h-3.18M41.7 11.24h3.2V9h-3.2M11.4 27.86c-1.95.92-2.9 2.84-3.37 4.4-1.9-1.08-4.48-.9-4.88-.88-.6.05-1.08.6-1.02 1.22.05.62.6 1.07 1.2 1.02.78-.06 3.8-.02 4.35 1.4.17.44.6.7 1.04.7h.18c.52-.08.92-.5.95-1.04 0-.04.25-3.7 2.5-4.78.57-.27.8-.94.54-1.5-.28-.57-.95-.8-1.5-.54zM10.28 45.7c.2.13.42.2.63.2.3 0 .57-.12.8-.32.02-.02 2.73-2.5 5.1-1.75.58.2 1.22-.13 1.4-.73.2-.6-.13-1.23-.72-1.4-2.05-.67-4.05.07-5.46.88-.64-2.08-2.64-3.74-2.95-3.98-.48-.4-1.2-.3-1.57.18-.4.48-.3 1.2.17 1.58.75.6 2.76 2.62 2.2 4-.2.47-.03 1.04.4 1.34z"/><path d="M48.57 44.62c2.98-4 3.5-8.96 3.6-10.55l3.97-3.6-1.5-1.68L34 47.5c-2.03-.3-4.24-.9-6.62-1.8l-.78 2.12c1.86.7 3.63 1.22 5.3 1.58L28 52.97h-5.43V22.6h20.2l-.43-1.44c-2.72-9.18-11.3-15.6-20.9-15.6-9.58 0-18.17 6.42-20.9 15.6l-.4 1.45H20.3v30.37H1.62v2.25h57.55v-2.25H54.1l-5.53-8.35zM32.85 11.54H10.03c3.26-2.35 7.23-3.72 11.4-3.72 4.2 0 8.16 1.37 11.42 3.72zM7.43 13.8h28.03c.8.8 1.52 1.68 2.17 2.63H5.25c.65-.95 1.38-1.82 2.18-2.64zm-3.48 4.88h35c.26.55.52 1.1.73 1.68H3.2c.22-.58.48-1.13.75-1.68zm43.27 23.9l-1.67-2.5 4.04-3.67c-.35 1.78-1.03 4.1-2.38 6.2zm-1.47 1.87c-.48.48-1 .94-1.6 1.34-1.92 1.32-4.3 1.98-7.1 1.97l6.8-6.17 1.9 2.84zm-11.02 5.44c.82.08 1.6.13 2.38.13 3.25 0 6.04-.8 8.35-2.4.57-.38 1.1-.8 1.57-1.27l4.4 6.6H31.33l3.4-3.07z"/></g></svg>